<svg viewBox="0 0 120 80" xmlns="http://www.w3.org/2000/svg">
    <!-- Gradient background -->
    <defs>
        <linearGradient id="oekoGradient" x1="0%" y1="0%" x2="100%" y2="100%">
            <stop offset="0%" stop-color="#1A3C40" />
            <stop offset="100%" stop-color="#25535A" />
        </linearGradient>
    </defs>
    <rect x="10" y="10" width="100" height="60" rx="5" fill="url(#oekoGradient)"/>
    
    <!-- Enhanced background pattern -->
    <path d="M20,20 H100 M20,30 H100 M20,40 H100 M20,50 H100 M20,60 H100" stroke="white" stroke-width="0.2" opacity="0.1"/>
    <path d="M20,20 V60 M40,20 V60 M60,20 V60 M80,20 V60 M100,20 V60" stroke="white" stroke-width="0.2" opacity="0.1"/>
    
    <!-- OEKO-TEX label design -->
    <rect x="30" y="20" width="60" height="40" rx="3" stroke="white" stroke-width="1" fill="none"/>
    <path d="M40,25 L80,25 M40,32 L80,32 M40,39 L80,39 M40,46 L80,46 M40,53 L80,53" stroke="white" stroke-width="0.5" opacity="0.5"/>
    
    <!-- Text elements -->
    <text x="60" y="30" font-family="Arial" font-size="10" font-weight="bold" fill="white" text-anchor="middle">OEKO-TEX</text>
    <text x="60" y="42" font-family="Arial" font-size="9" font-weight="bold" fill="white" text-anchor="middle">STANDARD</text>
    <text x="60" y="52" font-family="Arial" font-size="9" font-weight="bold" fill="white" text-anchor="middle">100</text>
    
    <!-- Registered trademark symbol -->
    <circle cx="85" cy="25" r="4" fill="none" stroke="white" stroke-width="0.8"/>
    <text x="85" y="27" font-family="Arial" font-size="5" fill="white" text-anchor="middle">®</text>
    
    <!-- Eco-friendly fabric elements -->
    <path d="M25,30 C25,25 35,25 35,30 C35,35 25,35 25,30 Z" fill="none" stroke="white" stroke-width="0.6" opacity="0.7"/>
    <path d="M95,30 C95,25 85,25 85,30 C85,35 95,35 95,30 Z" fill="none" stroke="white" stroke-width="0.6" opacity="0.7"/>
    <path d="M25,50 C25,45 35,45 35,50 C35,55 25,55 25,50 Z" fill="none" stroke="white" stroke-width="0.6" opacity="0.7"/>
    <path d="M95,50 C95,45 85,45 85,50 C85,55 95,55 95,50 Z" fill="none" stroke="white" stroke-width="0.6" opacity="0.7"/>
    
    <!-- Confidence in textiles text -->
    <text x="60" y="62" font-family="Arial" font-size="4" font-weight="normal" fill="white" text-anchor="middle">CONFIDENCE IN TEXTILES</text>
</svg> 